<mxfile host="app.diagrams.net" modified="2023-11-30T20:30:06.588Z" agent="Mozilla/5.0 (Windows NT 10.0; Win64; x64; rv:120.0) Gecko/20100101 Firefox/120.0" etag="fZnX90Os0SWiVGavfw4M" version="22.1.5" type="google">
  <diagram id="C5RBs43oDa-KdzZeNtuy" name="Page-1">
    <mxGraphModel grid="1" page="1" gridSize="10" guides="1" tooltips="1" connect="1" arrows="1" fold="1" pageScale="1" pageWidth="827" pageHeight="1169" math="0" shadow="0">
      <root>
        <mxCell id="WIyWlLk6GJQsqaUBKTNV-0" />
        <mxCell id="WIyWlLk6GJQsqaUBKTNV-1" parent="WIyWlLk6GJQsqaUBKTNV-0" />
        <mxCell id="Ii6EBYF0BPZbq6cMydTG-8" value="Shock Functionality" style="text;strokeColor=none;fillColor=none;html=1;fontSize=24;fontStyle=1;verticalAlign=middle;align=center;" vertex="1" parent="WIyWlLk6GJQsqaUBKTNV-1">
          <mxGeometry x="208" y="20" width="440" height="40" as="geometry" />
        </mxCell>
        <mxCell id="Q5ZlL75vWIPDFWJdmBZk-2" value="&lt;div&gt;AED&lt;/div&gt;" style="shape=umlLifeline;perimeter=lifelinePerimeter;whiteSpace=wrap;html=1;container=0;dropTarget=0;collapsible=0;recursiveResize=0;outlineConnect=0;portConstraint=eastwest;newEdgeStyle={&quot;edgeStyle&quot;:&quot;elbowEdgeStyle&quot;,&quot;elbow&quot;:&quot;vertical&quot;,&quot;curved&quot;:0,&quot;rounded&quot;:0};" vertex="1" parent="WIyWlLk6GJQsqaUBKTNV-1">
          <mxGeometry x="98" y="80" width="100" height="980" as="geometry" />
        </mxCell>
        <mxCell id="Q5ZlL75vWIPDFWJdmBZk-4" value="VoiceSystem" style="shape=umlLifeline;perimeter=lifelinePerimeter;whiteSpace=wrap;html=1;container=0;dropTarget=0;collapsible=0;recursiveResize=0;outlineConnect=0;portConstraint=eastwest;newEdgeStyle={&quot;edgeStyle&quot;:&quot;elbowEdgeStyle&quot;,&quot;elbow&quot;:&quot;vertical&quot;,&quot;curved&quot;:0,&quot;rounded&quot;:0};" vertex="1" parent="WIyWlLk6GJQsqaUBKTNV-1">
          <mxGeometry x="348" y="140" width="100" height="920" as="geometry" />
        </mxCell>
        <mxCell id="Q5ZlL75vWIPDFWJdmBZk-6" value="&lt;div&gt;MainWindow&lt;/div&gt;&lt;div&gt;.analyzing&lt;br&gt;&lt;/div&gt;" style="shape=umlLifeline;perimeter=lifelinePerimeter;whiteSpace=wrap;html=1;container=0;dropTarget=0;collapsible=0;recursiveResize=0;outlineConnect=0;portConstraint=eastwest;newEdgeStyle={&quot;edgeStyle&quot;:&quot;elbowEdgeStyle&quot;,&quot;elbow&quot;:&quot;vertical&quot;,&quot;curved&quot;:0,&quot;rounded&quot;:0};fillColor=none;" vertex="1" parent="WIyWlLk6GJQsqaUBKTNV-1">
          <mxGeometry x="488" y="135" width="100" height="925" as="geometry" />
        </mxCell>
        <mxCell id="Q5ZlL75vWIPDFWJdmBZk-7" value="MainWindow" style="shape=umlLifeline;perimeter=lifelinePerimeter;whiteSpace=wrap;html=1;container=0;dropTarget=0;collapsible=0;recursiveResize=0;outlineConnect=0;portConstraint=eastwest;newEdgeStyle={&quot;edgeStyle&quot;:&quot;elbowEdgeStyle&quot;,&quot;elbow&quot;:&quot;vertical&quot;,&quot;curved&quot;:0,&quot;rounded&quot;:0};" vertex="1" parent="WIyWlLk6GJQsqaUBKTNV-1">
          <mxGeometry x="168" y="140" width="100" height="920" as="geometry" />
        </mxCell>
        <mxCell id="Q5ZlL75vWIPDFWJdmBZk-24" value="&lt;div&gt;MainWindow&lt;/div&gt;&lt;div&gt;.placeElectrodesBtn&lt;br&gt;&lt;/div&gt;" style="shape=umlLifeline;perimeter=lifelinePerimeter;whiteSpace=wrap;html=1;container=0;dropTarget=0;collapsible=0;recursiveResize=0;outlineConnect=0;portConstraint=eastwest;newEdgeStyle={&quot;edgeStyle&quot;:&quot;elbowEdgeStyle&quot;,&quot;elbow&quot;:&quot;vertical&quot;,&quot;curved&quot;:0,&quot;rounded&quot;:0};" vertex="1" parent="WIyWlLk6GJQsqaUBKTNV-1">
          <mxGeometry x="248" y="80" width="120" height="980" as="geometry" />
        </mxCell>
        <mxCell id="Q5ZlL75vWIPDFWJdmBZk-46" value="&lt;div&gt;MainWindow&lt;/div&gt;&lt;div&gt;.shockableRhythm&lt;br&gt;&lt;/div&gt;" style="shape=umlLifeline;perimeter=lifelinePerimeter;whiteSpace=wrap;html=1;container=0;dropTarget=0;collapsible=0;recursiveResize=0;outlineConnect=0;portConstraint=eastwest;newEdgeStyle={&quot;edgeStyle&quot;:&quot;elbowEdgeStyle&quot;,&quot;elbow&quot;:&quot;vertical&quot;,&quot;curved&quot;:0,&quot;rounded&quot;:0};fillColor=none;" vertex="1" parent="WIyWlLk6GJQsqaUBKTNV-1">
          <mxGeometry x="548" y="75" width="110" height="985" as="geometry" />
        </mxCell>
        <mxCell id="Q5ZlL75vWIPDFWJdmBZk-47" value="" style="endArrow=classic;html=1;rounded=0;" edge="1" parent="WIyWlLk6GJQsqaUBKTNV-1">
          <mxGeometry width="50" height="50" relative="1" as="geometry">
            <mxPoint x="218.66000000000008" y="320" as="sourcePoint" />
            <mxPoint x="217.99666666666656" y="460" as="targetPoint" />
            <Array as="points">
              <mxPoint x="238.66000000000008" y="320" />
              <mxPoint x="238.33000000000004" y="460" />
            </Array>
          </mxGeometry>
        </mxCell>
        <mxCell id="Q5ZlL75vWIPDFWJdmBZk-48" value="&lt;div&gt;Analyze Patient&lt;/div&gt;" style="edgeLabel;html=1;align=center;verticalAlign=middle;resizable=0;points=[];rotation=90;" connectable="0" vertex="1" parent="Q5ZlL75vWIPDFWJdmBZk-47">
          <mxGeometry x="-0.5084" y="2" relative="1" as="geometry">
            <mxPoint x="7" y="36" as="offset" />
          </mxGeometry>
        </mxCell>
        <mxCell id="Q5ZlL75vWIPDFWJdmBZk-51" value="" style="endArrow=classic;html=1;rounded=0;exitX=0.5;exitY=0.121;exitDx=0;exitDy=0;exitPerimeter=0;" edge="1" parent="WIyWlLk6GJQsqaUBKTNV-1" target="Q5ZlL75vWIPDFWJdmBZk-6">
          <mxGeometry width="50" height="50" relative="1" as="geometry">
            <mxPoint x="218.25" y="300" as="sourcePoint" />
            <mxPoint x="877.75" y="300" as="targetPoint" />
          </mxGeometry>
        </mxCell>
        <mxCell id="Q5ZlL75vWIPDFWJdmBZk-52" value="Light Green" style="edgeLabel;html=1;align=center;verticalAlign=middle;resizable=0;points=[];" connectable="0" vertex="1" parent="Q5ZlL75vWIPDFWJdmBZk-51">
          <mxGeometry x="-0.3931" y="1" relative="1" as="geometry">
            <mxPoint x="-68" y="-9" as="offset" />
          </mxGeometry>
        </mxCell>
        <mxCell id="Q5ZlL75vWIPDFWJdmBZk-53" value="" style="endArrow=classic;html=1;rounded=0;exitX=0.5;exitY=0.121;exitDx=0;exitDy=0;exitPerimeter=0;" edge="1" parent="WIyWlLk6GJQsqaUBKTNV-1" target="Q5ZlL75vWIPDFWJdmBZk-46">
          <mxGeometry width="50" height="50" relative="1" as="geometry">
            <mxPoint x="218" y="540" as="sourcePoint" />
            <mxPoint x="943" y="540" as="targetPoint" />
          </mxGeometry>
        </mxCell>
        <mxCell id="Q5ZlL75vWIPDFWJdmBZk-54" value="Light Green" style="edgeLabel;html=1;align=center;verticalAlign=middle;resizable=0;points=[];" connectable="0" vertex="1" parent="Q5ZlL75vWIPDFWJdmBZk-53">
          <mxGeometry x="-0.3931" y="1" relative="1" as="geometry">
            <mxPoint x="-86" y="-9" as="offset" />
          </mxGeometry>
        </mxCell>
        <mxCell id="Q5ZlL75vWIPDFWJdmBZk-59" value="" style="endArrow=classic;html=1;rounded=0;" edge="1" parent="WIyWlLk6GJQsqaUBKTNV-1">
          <mxGeometry width="50" height="50" relative="1" as="geometry">
            <mxPoint x="398.09000000000003" y="270" as="sourcePoint" />
            <mxPoint x="217.9135294117649" y="270" as="targetPoint" />
          </mxGeometry>
        </mxCell>
        <mxCell id="Q5ZlL75vWIPDFWJdmBZk-60" value="&lt;div&gt;Analyzing Heart Rhythm&lt;br&gt;&lt;/div&gt;&lt;div&gt;(initiateAudioAndTextInstruction())&lt;/div&gt;" style="edgeLabel;html=1;align=center;verticalAlign=middle;resizable=0;points=[];" connectable="0" vertex="1" parent="Q5ZlL75vWIPDFWJdmBZk-59">
          <mxGeometry x="-0.1239" y="-2" relative="1" as="geometry">
            <mxPoint x="-11" y="-18" as="offset" />
          </mxGeometry>
        </mxCell>
        <mxCell id="Q5ZlL75vWIPDFWJdmBZk-61" value="" style="endArrow=classic;html=1;rounded=0;" edge="1" parent="WIyWlLk6GJQsqaUBKTNV-1">
          <mxGeometry width="50" height="50" relative="1" as="geometry">
            <mxPoint x="398.09000000000003" y="510" as="sourcePoint" />
            <mxPoint x="217.9135294117649" y="510" as="targetPoint" />
          </mxGeometry>
        </mxCell>
        <mxCell id="Q5ZlL75vWIPDFWJdmBZk-62" value="&lt;div&gt;Shockable Rhythm Detected&lt;br&gt;&lt;/div&gt;&lt;div&gt;(initiateAudioAndTextInstruction())&lt;/div&gt;" style="edgeLabel;html=1;align=center;verticalAlign=middle;resizable=0;points=[];" connectable="0" vertex="1" parent="Q5ZlL75vWIPDFWJdmBZk-61">
          <mxGeometry x="-0.1239" y="-2" relative="1" as="geometry">
            <mxPoint x="-11" y="-18" as="offset" />
          </mxGeometry>
        </mxCell>
        <mxCell id="Q5ZlL75vWIPDFWJdmBZk-90" value="" style="endArrow=classic;html=1;rounded=0;" edge="1" parent="WIyWlLk6GJQsqaUBKTNV-1">
          <mxGeometry width="50" height="50" relative="1" as="geometry">
            <mxPoint x="217.49999999999955" y="576" as="sourcePoint" />
            <mxPoint x="147.98717948717967" y="576" as="targetPoint" />
          </mxGeometry>
        </mxCell>
        <mxCell id="Q5ZlL75vWIPDFWJdmBZk-91" value="setIsReadyForShock()" style="edgeLabel;html=1;align=center;verticalAlign=middle;resizable=0;points=[];" connectable="0" vertex="1" parent="Q5ZlL75vWIPDFWJdmBZk-90">
          <mxGeometry x="0.2929" relative="1" as="geometry">
            <mxPoint x="46" y="-10" as="offset" />
          </mxGeometry>
        </mxCell>
        <mxCell id="Q5ZlL75vWIPDFWJdmBZk-92" value="" style="endArrow=classic;html=1;rounded=0;" edge="1" parent="WIyWlLk6GJQsqaUBKTNV-1">
          <mxGeometry width="50" height="50" relative="1" as="geometry">
            <mxPoint x="217.50999999999954" y="606" as="sourcePoint" />
            <mxPoint x="147.99717948717966" y="606" as="targetPoint" />
          </mxGeometry>
        </mxCell>
        <mxCell id="Q5ZlL75vWIPDFWJdmBZk-93" value="readyForShockFunctionality()" style="edgeLabel;html=1;align=center;verticalAlign=middle;resizable=0;points=[];" connectable="0" vertex="1" parent="Q5ZlL75vWIPDFWJdmBZk-92">
          <mxGeometry x="0.2929" relative="1" as="geometry">
            <mxPoint x="56" y="-10" as="offset" />
          </mxGeometry>
        </mxCell>
        <mxCell id="Q5ZlL75vWIPDFWJdmBZk-99" value="" style="endArrow=classic;html=1;rounded=0;" edge="1" parent="WIyWlLk6GJQsqaUBKTNV-1">
          <mxGeometry width="50" height="50" relative="1" as="geometry">
            <mxPoint x="217.98736842105245" y="646" as="sourcePoint" />
            <mxPoint x="217.99717948717966" y="646" as="targetPoint" />
            <Array as="points">
              <mxPoint x="398.01" y="646" />
            </Array>
          </mxGeometry>
        </mxCell>
        <mxCell id="Q5ZlL75vWIPDFWJdmBZk-100" value="&lt;div&gt;Shock Advised&lt;br&gt;&lt;/div&gt;&lt;div&gt;(initiateAudioAndTextInstruction())&lt;/div&gt;" style="edgeLabel;html=1;align=center;verticalAlign=middle;resizable=0;points=[];" connectable="0" vertex="1" parent="Q5ZlL75vWIPDFWJdmBZk-99">
          <mxGeometry x="-0.2324" relative="1" as="geometry">
            <mxPoint x="-48" y="-20" as="offset" />
          </mxGeometry>
        </mxCell>
        <mxCell id="Q5ZlL75vWIPDFWJdmBZk-101" value="" style="endArrow=classic;html=1;rounded=0;" edge="1" parent="WIyWlLk6GJQsqaUBKTNV-1">
          <mxGeometry width="50" height="50" relative="1" as="geometry">
            <mxPoint x="147.8103448275865" y="676" as="sourcePoint" />
            <mxPoint x="217.49999999999955" y="676" as="targetPoint" />
          </mxGeometry>
        </mxCell>
        <mxCell id="Q5ZlL75vWIPDFWJdmBZk-102" value="emit flashShockButtonSignal()" style="edgeLabel;html=1;align=center;verticalAlign=middle;resizable=0;points=[];" connectable="0" vertex="1" parent="Q5ZlL75vWIPDFWJdmBZk-101">
          <mxGeometry x="0.3325" y="1" relative="1" as="geometry">
            <mxPoint x="-66" y="-9" as="offset" />
          </mxGeometry>
        </mxCell>
        <mxCell id="Q5ZlL75vWIPDFWJdmBZk-103" value="" style="endArrow=classic;html=1;rounded=0;" edge="1" parent="WIyWlLk6GJQsqaUBKTNV-1">
          <mxGeometry width="50" height="50" relative="1" as="geometry">
            <mxPoint x="218.00034482758656" y="706" as="sourcePoint" />
            <mxPoint x="307.5" y="706" as="targetPoint" />
          </mxGeometry>
        </mxCell>
        <mxCell id="Q5ZlL75vWIPDFWJdmBZk-104" value="flashTimer-&amp;gt;start()" style="edgeLabel;html=1;align=center;verticalAlign=middle;resizable=0;points=[];" connectable="0" vertex="1" parent="Q5ZlL75vWIPDFWJdmBZk-103">
          <mxGeometry x="0.3325" y="1" relative="1" as="geometry">
            <mxPoint x="-29" y="-9" as="offset" />
          </mxGeometry>
        </mxCell>
        <mxCell id="Q5ZlL75vWIPDFWJdmBZk-105" value="&lt;div&gt;&lt;font style=&quot;font-size: 6px;&quot;&gt;while &lt;/font&gt;&lt;font style=&quot;font-size: 6px;&quot;&gt;!&lt;font&gt;getShockAdministered&lt;/font&gt;&lt;font&gt;()&lt;/font&gt;&lt;/font&gt;&lt;/div&gt;" style="html=1;shape=mxgraph.sysml.package;overflow=fill;labelX=95;align=left;spacingLeft=5;verticalAlign=top;spacingTop=-3;fillColor=none;" vertex="1" parent="WIyWlLk6GJQsqaUBKTNV-1">
          <mxGeometry x="98" y="716" width="600" height="160" as="geometry" />
        </mxCell>
        <mxCell id="Q5ZlL75vWIPDFWJdmBZk-106" value="" style="endArrow=classic;html=1;rounded=0;" edge="1" parent="WIyWlLk6GJQsqaUBKTNV-1">
          <mxGeometry width="50" height="50" relative="1" as="geometry">
            <mxPoint x="218.177419354839" y="726.0000000000005" as="sourcePoint" />
            <mxPoint x="217.9976190476193" y="816" as="targetPoint" />
            <Array as="points">
              <mxPoint x="238" y="726" />
              <mxPoint x="238.45000000000005" y="816" />
              <mxPoint x="218.45000000000005" y="816" />
            </Array>
          </mxGeometry>
        </mxCell>
        <mxCell id="Q5ZlL75vWIPDFWJdmBZk-107" value="flashShockButton()" style="edgeLabel;html=1;align=center;verticalAlign=middle;resizable=0;points=[];rotation=90;" vertex="1" connectable="0" parent="Q5ZlL75vWIPDFWJdmBZk-106">
          <mxGeometry x="-0.1612" y="-2" relative="1" as="geometry">
            <mxPoint x="12" y="5" as="offset" />
          </mxGeometry>
        </mxCell>
        <mxCell id="Q5ZlL75vWIPDFWJdmBZk-108" value="&lt;div&gt;&lt;br&gt;&lt;/div&gt;&lt;div&gt;MainWindow&lt;/div&gt;&lt;div&gt;.shock&lt;br&gt;&lt;/div&gt;" style="shape=umlLifeline;perimeter=lifelinePerimeter;whiteSpace=wrap;html=1;container=0;dropTarget=0;collapsible=0;recursiveResize=0;outlineConnect=0;portConstraint=eastwest;newEdgeStyle={&quot;edgeStyle&quot;:&quot;elbowEdgeStyle&quot;,&quot;elbow&quot;:&quot;vertical&quot;,&quot;curved&quot;:0,&quot;rounded&quot;:0};fillColor=none;" vertex="1" parent="WIyWlLk6GJQsqaUBKTNV-1">
          <mxGeometry x="628" y="135" width="100" height="925" as="geometry" />
        </mxCell>
        <mxCell id="Q5ZlL75vWIPDFWJdmBZk-109" value="" style="endArrow=classic;html=1;rounded=0;" edge="1" parent="WIyWlLk6GJQsqaUBKTNV-1" target="Q5ZlL75vWIPDFWJdmBZk-108">
          <mxGeometry width="50" height="50" relative="1" as="geometry">
            <mxPoint x="217.16666666666697" y="856" as="sourcePoint" />
            <mxPoint x="1018" y="856" as="targetPoint" />
          </mxGeometry>
        </mxCell>
        <mxCell id="Q5ZlL75vWIPDFWJdmBZk-110" value="setStyleSheet()" style="edgeLabel;html=1;align=center;verticalAlign=middle;resizable=0;points=[];" vertex="1" connectable="0" parent="Q5ZlL75vWIPDFWJdmBZk-109">
          <mxGeometry x="-0.5548" relative="1" as="geometry">
            <mxPoint x="-62" y="-10" as="offset" />
          </mxGeometry>
        </mxCell>
        <mxCell id="Q5ZlL75vWIPDFWJdmBZk-111" value="" style="endArrow=classic;html=1;rounded=0;" edge="1" parent="WIyWlLk6GJQsqaUBKTNV-1" target="Q5ZlL75vWIPDFWJdmBZk-108">
          <mxGeometry width="50" height="50" relative="1" as="geometry">
            <mxPoint x="217.996666666667" y="930" as="sourcePoint" />
            <mxPoint x="1018.3299999999999" y="930" as="targetPoint" />
          </mxGeometry>
        </mxCell>
        <mxCell id="Q5ZlL75vWIPDFWJdmBZk-112" value="set colour back to default&lt;br&gt;&lt;div&gt;(setStyleSheet())&lt;/div&gt;" style="edgeLabel;html=1;align=center;verticalAlign=middle;resizable=0;points=[];" vertex="1" connectable="0" parent="Q5ZlL75vWIPDFWJdmBZk-111">
          <mxGeometry x="-0.5548" relative="1" as="geometry">
            <mxPoint x="-52" y="-20" as="offset" />
          </mxGeometry>
        </mxCell>
      </root>
    </mxGraphModel>
  </diagram>
</mxfile>
